<svg width="25" height="25" viewBox="0 0 25 25" fill="none" xmlns="http://www.w3.org/2000/svg">
<path d="M2.58984 18.6698C3.68849 16.8373 6.09635 15.5831 9.85296 15.5831C13.6096 15.5831 16.0174 16.8373 17.1161 18.6698M17.8111 14.1936C19.8005 15.1883 20.7952 16.1829 21.7898 18.1723M15.7421 6.5906C16.6781 7.09415 17.3145 8.08292 17.3145 9.22031C17.3145 10.3248 16.7144 11.2892 15.8224 11.8052M12.837 9.22027C12.837 10.8683 11.501 12.2043 9.85296 12.2043C8.2049 12.2043 6.86889 10.8683 6.86889 9.22027C6.86889 7.57222 8.2049 6.23621 9.85296 6.23621C11.501 6.23621 12.837 7.57222 12.837 9.22027Z" stroke="#BECAD6" stroke-width="2" stroke-linecap="round"/>
</svg>
