<svg width="16" height="16" viewBox="0 0 16 16" fill="none" xmlns="http://www.w3.org/2000/svg">
<path d="M13.7222 12.2505C13.7222 12.2505 12.9949 12.9649 12.8166 13.1743C12.5263 13.4842 12.1842 13.6305 11.7357 13.6305C11.6925 13.6305 11.6465 13.6305 11.6034 13.6276C10.7496 13.5731 9.95609 13.2403 9.36097 12.9563C7.73376 12.1702 6.30492 11.0541 5.11757 9.63965C4.13721 8.46046 3.48173 7.37022 3.04761 6.19964C2.78024 5.48525 2.6825 4.92865 2.72562 4.40361C2.75437 4.06793 2.88374 3.78963 3.12236 3.5515L4.10271 2.57315C4.24359 2.44117 4.39308 2.36945 4.53971 2.36945C4.72083 2.36945 4.86745 2.47847 4.95945 2.57028C4.96232 2.57315 4.9652 2.57602 4.96807 2.57889C5.14344 2.74242 5.31019 2.9117 5.48556 3.09245C5.57468 3.18426 5.66668 3.27607 5.75868 3.37075L6.54354 4.154C6.84828 4.45812 6.84828 4.73929 6.54354 5.04341C6.46016 5.12661 6.37966 5.20982 6.29629 5.29015C6.0548 5.53689 6.2445 5.34757 5.99438 5.57136C5.98864 5.57709 5.98288 5.57996 5.98001 5.5857C5.73277 5.83244 5.77876 6.07344 5.83051 6.23698C5.83339 6.24558 5.83626 6.25419 5.83914 6.2628C6.04326 6.75628 6.33075 7.22107 6.76774 7.77479L6.77062 7.77766C7.5641 8.75314 8.40071 9.51345 9.32356 10.0959C9.44143 10.1705 9.56218 10.2307 9.67718 10.2881C9.78068 10.3397 9.87842 10.3885 9.9618 10.4402C9.9733 10.4459 9.9848 10.4545 9.9963 10.4602C10.094 10.509 10.186 10.532 10.2809 10.532C10.5195 10.532 10.669 10.3828 10.7179 10.334L11.2814 9.77162C11.3792 9.67408 11.5344 9.55644 11.7155 9.55644C11.8938 9.55644 12.0404 9.66834 12.1295 9.76589C12.1324 9.76876 12.1324 9.76876 12.1353 9.77162L13.7194 11.3525C14.0155 11.6451 13.7222 12.2505 13.7222 12.2505Z" stroke="#3D12FA" stroke-width="1.25551" stroke-linecap="round" stroke-linejoin="round"/>
</svg>
